<svg width="128" height="128" viewBox="0 0 128 128" fill="none" xmlns="http://www.w3.org/2000/svg">
  <rect width="128" height="128" rx="28" fill="#0F172A"/>
  <path d="M28 94C43 88 60 86 82 90C90 91 97 92 104 91" stroke="#FFE66D" stroke-width="10" stroke-linecap="round"/>
  <g transform="rotate(-24 65 62)">
    <rect x="43" y="27" width="38" height="60" rx="10" fill="#2DD4BF"/>
    <path d="M49 40H75" stroke="#DFFCF8" stroke-width="5" stroke-linecap="round" opacity=".82"/>
    <path d="M47 82H77L69 101H55L47 82Z" fill="#F8FAFC"/>
    <path d="M55 101H69L62 111L55 101Z" fill="#172033"/>
  </g>
  <path d="M91 23L95 35L107 39L95 43L91 55L87 43L75 39L87 35L91 23Z" fill="#A78BFA"/>
</svg>
